<svg xmlns="http://www.w3.org/2000/svg" data-name="Layer 1" width="888" height="710.80704" viewBox="0 0 888 710.80704" xmlns:xlink="http://www.w3.org/1999/xlink">
  <title>server</title>
  <rect x="469" y="509.90391" width="262" height="195" transform="translate(1051.40391 -87.19257) rotate(90)" fill="#2f2e41" />
  <rect x="313" y="373.80743" width="262" height="104" fill="#3f3d56" />
  <rect x="313" y="489.80743" width="262" height="104" fill="#3f3d56" />
  <rect x="313" y="605.80743" width="262" height="104" fill="#3f3d56" />
  <rect x="313" y="417.90372" width="262" height="16" fill="#8b5cf6" />
  <rect x="313" y="533.90372" width="262" height="16" fill="#8b5cf6" />
  <rect x="313" y="649.90372" width="262" height="16" fill="#8b5cf6" />
  <circle cx="524" cy="388.80743" r="6" fill="#8b5cf6" />
  <circle cx="545" cy="388.80743" r="6" fill="#8b5cf6" />
  <circle cx="566" cy="388.80743" r="6" fill="#8b5cf6" />
  <circle cx="524" cy="502.80743" r="6" fill="#8b5cf6" />
  <circle cx="545" cy="502.80743" r="6" fill="#8b5cf6" />
  <circle cx="566" cy="502.80743" r="6" fill="#8b5cf6" />
  <circle cx="524" cy="616.80743" r="6" fill="#8b5cf6" />
  <circle cx="545" cy="616.80743" r="6" fill="#8b5cf6" />
  <circle cx="566" cy="616.80743" r="6" fill="#8b5cf6" />
</svg>